<svg width="20" height="21" viewBox="0 0 20 21" fill="none" xmlns="http://www.w3.org/2000/svg">
<path fill-rule="evenodd" clip-rule="evenodd" d="M13.9697 0.96967C14.2626 0.676777 14.7374 0.676777 15.0303 0.96967L19.5303 5.46967C19.671 5.61032 19.75 5.80109 19.75 6C19.75 6.19891 19.671 6.38968 19.5303 6.53033L15.0303 11.0303C14.7374 11.3232 14.2626 11.3232 13.9697 11.0303C13.6768 10.7374 13.6768 10.2626 13.9697 9.96967L17.1893 6.75L5.5 6.75C5.08579 6.75 4.75 6.41421 4.75 6C4.75 5.58579 5.08579 5.25 5.5 5.25L17.1893 5.25L13.9697 2.03033C13.6768 1.73744 13.6768 1.26256 13.9697 0.96967ZM6.03033 9.96967C6.32322 10.2626 6.32322 10.7374 6.03033 11.0303L2.81066 14.25H14.5C14.9142 14.25 15.25 14.5858 15.25 15C15.25 15.4142 14.9142 15.75 14.5 15.75H2.81066L6.03033 18.9697C6.32322 19.2626 6.32322 19.7374 6.03033 20.0303C5.73744 20.3232 5.26256 20.3232 4.96967 20.0303L0.46967 15.5303C0.176777 15.2374 0.176777 14.7626 0.46967 14.4697L4.96967 9.96967C5.26256 9.67678 5.73744 9.67678 6.03033 9.96967Z" fill="white"/>
</svg>
