<svg width="22" height="20" viewBox="0 0 22 20" fill="none" xmlns="http://www.w3.org/2000/svg">
<path d="M11 5C9.75736 5 8.75 6.00736 8.75 7.25C8.75 8.49264 9.75736 9.5 11 9.5C12.2426 9.5 13.25 8.49264 13.25 7.25C13.25 6.00736 12.2426 5 11 5Z" fill="white"/>
<path fill-rule="evenodd" clip-rule="evenodd" d="M0.5 2.375C0.5 1.33947 1.33947 0.5 2.375 0.5H19.625C20.6605 0.5 21.5 1.33947 21.5 2.375V12.125C21.5 13.1605 20.6605 14 19.625 14H2.375C1.33947 14 0.5 13.1605 0.5 12.125V2.375ZM7.25 7.25C7.25 5.17893 8.92893 3.5 11 3.5C13.0711 3.5 14.75 5.17893 14.75 7.25C14.75 9.32107 13.0711 11 11 11C8.92893 11 7.25 9.32107 7.25 7.25ZM17.75 6.5C17.3358 6.5 17 6.83579 17 7.25V7.2575C17 7.67171 17.3358 8.0075 17.75 8.0075H17.7575C18.1717 8.0075 18.5075 7.67171 18.5075 7.2575V7.25C18.5075 6.83579 18.1717 6.5 17.7575 6.5H17.75ZM3.5 7.25C3.5 6.83579 3.83579 6.5 4.25 6.5H4.2575C4.67171 6.5 5.0075 6.83579 5.0075 7.25V7.2575C5.0075 7.67171 4.67171 8.0075 4.2575 8.0075H4.25C3.83579 8.0075 3.5 7.67171 3.5 7.2575V7.25Z" fill="white"/>
<path d="M1.25 15.5C0.835786 15.5 0.5 15.8358 0.5 16.25C0.5 16.6642 0.835786 17 1.25 17C6.65005 17 11.8802 17.7222 16.8498 19.0749C18.0404 19.399 19.25 18.5168 19.25 17.2551V16.25C19.25 15.8358 18.9142 15.5 18.5 15.5H1.25Z" fill="white"/>
</svg>
