<svg width="18" height="21" viewBox="0 0 18 21" fill="none" xmlns="http://www.w3.org/2000/svg">
<path d="M18 4.875C18 7.56739 13.9706 9.75 9 9.75C4.02944 9.75 0 7.56739 0 4.875C0 2.18261 4.02944 0 9 0C13.9706 0 18 2.18261 18 4.875Z" fill="white"/>
<path d="M9 11.25C11.6852 11.25 14.1905 10.6637 16.0784 9.64108C16.7684 9.26734 17.4248 8.80433 17.9747 8.25674C17.9915 8.37831 18 8.50111 18 8.625C18 11.3174 13.9706 13.5 9 13.5C4.02944 13.5 0 11.3174 0 8.625C0 8.50111 0.00853154 8.3783 0.0252937 8.25674C0.575227 8.80433 1.23162 9.26734 1.92161 9.64108C3.80949 10.6637 6.31481 11.25 9 11.25Z" fill="white"/>
<path d="M9 15C11.6852 15 14.1905 14.4137 16.0784 13.3911C16.7684 13.0173 17.4248 12.5543 17.9747 12.0067C17.9915 12.1283 18 12.2511 18 12.375C18 15.0674 13.9706 17.25 9 17.25C4.02944 17.25 0 15.0674 0 12.375C0 12.2511 0.00853154 12.1283 0.0252937 12.0067C0.575227 12.5543 1.23162 13.0173 1.92161 13.3911C3.80949 14.4137 6.31481 15 9 15Z" fill="white"/>
<path d="M9 18.75C11.6852 18.75 14.1905 18.1637 16.0784 17.1411C16.7684 16.7673 17.4248 16.3043 17.9747 15.7567C17.9915 15.8783 18 16.0011 18 16.125C18 18.8174 13.9706 21 9 21C4.02944 21 0 18.8174 0 16.125C0 16.0011 0.00853154 15.8783 0.0252937 15.7567C0.575227 16.3043 1.23162 16.7673 1.92161 17.1411C3.80949 18.1637 6.31481 18.75 9 18.75Z" fill="white"/>
</svg>
